# Blender v2.83.2 OBJ File: 'odam.blend'
# www.blender.org
mtllib odam.mtl
o Plane_Plane.002
v -1.289875 -0.002877 0.000000
v 1.289875 -0.002877 0.000000
v -1.289875 2.143254 -0.000000
v 1.289875 2.143254 -0.000000
v -1.289875 2.143254 0.171646
v 1.289875 2.143254 0.170588
v -1.289875 2.495275 0.171129
v 1.289875 2.495275 0.171129
v -1.289875 -0.002877 0.172164
v -1.289875 2.143254 0.591273
v -1.289875 2.495275 0.590755
v -1.289875 -0.002877 0.591790
v -1.289875 2.143254 3.074121
v -1.289875 2.495275 3.073604
v -1.289875 -0.002877 3.074639
v 1.289875 -0.002877 0.170047
v 1.289875 2.143254 0.750829
v 1.289875 2.495275 0.751369
v 1.289875 -0.002877 0.750288
v 1.491092 2.143254 0.750829
v 1.491092 2.495275 0.751369
v 1.491092 -0.002877 0.750288
v 1.491092 2.143254 3.069286
v 1.491092 2.495275 3.069827
v 1.491092 -0.002877 3.068745
v 1.491092 2.495275 0.998473
v 1.491092 -0.002877 0.997391
v 1.491092 2.143254 0.997932
v 1.648057 2.143254 3.069286
v 1.648057 -0.002877 3.068745
v 1.697568 -0.002877 0.997391
v 1.648057 2.143254 0.997932
v -1.289875 2.495275 1.443847
v -1.289875 2.143254 1.444365
v -1.289875 -0.002877 1.444882
v -1.405039 2.143254 0.591273
v -1.405039 -0.002877 0.591790
v -1.407671 2.143254 1.444365
v -1.405039 -0.002877 1.444882
v -1.289875 2.495275 1.995304
v -1.289875 2.143254 1.995821
v -1.289875 -0.002877 1.996339
v -1.289875 0.921512 -0.000000
v 1.289875 0.921512 -0.000000
v -1.289875 0.921512 0.591532
v -1.289875 0.921512 0.171905
v -1.289875 0.921512 3.074380
v 1.289875 0.921512 0.750558
v 1.289875 0.921512 0.170318
v 1.491092 0.921512 0.750558
v 1.491092 0.921512 3.069016
v 1.491092 0.921512 0.997661
v 1.648057 0.921512 3.069016
v 1.672813 0.921512 0.997661
v -1.289875 0.921512 1.444623
v -1.405039 0.921512 0.591532
v -1.407671 0.921512 1.444623
v -1.289875 0.921512 1.996080
v -1.410302 2.143254 1.995821
v -1.410302 0.921512 1.996080
v 1.491092 2.143254 2.033609
v -1.289954 -0.002877 0.997391
v 1.491092 -0.002877 2.033068
v 1.491092 2.495275 2.034150
v 1.648057 2.143254 2.033609
v 1.672813 -0.002877 2.033068
v 1.660435 0.921512 2.033339
v 1.491092 2.495275 1.516311
v 1.491092 -0.002877 1.515229
v 1.491092 2.143254 1.515770
v 1.648057 2.143254 1.515770
v 1.685190 -0.002877 1.515229
v 1.666624 0.921512 1.515500
v 1.283415 2.143254 3.069647
v 1.283415 -0.002877 3.069185
v 1.283415 2.495275 3.070109
v 1.283415 0.921512 3.069416
v 1.283409 -0.002877 0.997391
v 1.283415 -0.002877 2.030325
v 1.283415 -0.002877 1.509976
vt 0.000000 0.500000
vt 1.000000 0.500000
vt 1.000000 1.000000
vt 0.000000 1.000000
vt 1.000000 1.000000
vt 0.000000 1.000000
vt 1.000000 1.000000
vt 0.000000 1.000000
vt 0.000000 0.500000
vt 0.000000 1.000000
vt 0.000000 0.500000
vt 0.000000 1.000000
vt 0.000000 1.000000
vt 0.000000 1.000000
vt 0.000000 1.000000
vt 0.000000 1.000000
vt 0.000000 0.500000
vt 0.000000 0.500000
vt 1.000000 0.000000
vt 1.000000 0.000000
vt 1.000000 0.500000
vt 1.000000 0.000000
vt 1.000000 0.500000
vt 1.000000 1.000000
vt 1.000000 1.000000
vt 1.000000 1.000000
vt 1.000000 1.000000
vt 1.000000 0.000000
vt 1.000000 0.500000
vt 1.000000 1.000000
vt 1.000000 1.000000
vt 1.000000 1.000000
vt 1.000000 1.000000
vt 0.000000 0.000000
vt 0.000000 0.000000
vt 0.000000 0.000000
vt 0.000000 0.000000
vt 1.000000 1.000000
vt 1.000000 1.000000
vt 1.000000 1.000000
vt 1.000000 1.000000
vt 1.000000 0.500000
vt 1.000000 0.000000
vt 1.000000 0.000000
vt 1.000000 0.500000
vt 1.000000 0.000000
vt 1.000000 0.500000
vt 1.000000 1.000000
vt 1.000000 1.000000
vt 1.000000 0.500000
vt 1.000000 0.000000
vt 1.000000 0.000000
vt 1.000000 0.500000
vt 1.000000 1.000000
vt 1.000000 1.000000
vt 1.000000 1.000000
vt 1.000000 0.500000
vt 1.000000 1.000000
vt 1.000000 0.000000
vt 1.000000 0.500000
vt 0.000000 1.000000
vt 0.000000 1.000000
vt 0.000000 1.000000
vt 0.000000 1.000000
vt 0.000000 0.500000
vt 0.000000 0.500000
vt 0.000000 0.500000
vt 0.000000 0.000000
vt 0.000000 0.000000
vt 0.000000 0.000000
vt 0.000000 0.000000
vt 0.000000 0.500000
vt 0.000000 1.000000
vt 0.000000 0.000000
vt 1.000000 0.000000
vt 1.000000 1.000000
vt 0.000000 0.000000
vt 0.000000 0.000000
vt 0.000000 0.000000
vt 0.000000 0.000000
vt 0.000000 0.000000
vt 0.000000 0.000000
vt 0.000000 0.000000
vt 0.000000 0.000000
vt 1.000000 0.500000
vt 1.000000 0.000000
vt 0.000000 0.000000
vt 0.000000 0.000000
vt 1.000000 1.000000
vt 0.000000 0.000000
vt 0.000000 0.000000
vt 0.000000 0.000000
vt 0.000000 0.000000
vt 0.000000 0.000000
vt 0.000000 0.000000
vn 0.0000 0.0000 1.0000
vn 0.0000 -1.0000 0.0000
vn 0.0002 -0.0000 1.0000
vn 1.0000 -0.0000 0.0000
vn -1.0000 0.0000 0.0000
vn 0.0000 -0.0015 1.0000
vn 0.0000 -0.0003 1.0000
vn 0.0000 1.0000 -0.0000
vn -0.0015 -0.0001 -1.0000
vn -0.0020 -0.0000 -1.0000
vn -0.9998 -0.0067 -0.0179
vn 0.0000 0.0002 -1.0000
vn 1.0000 0.0000 0.0031
vn 0.0000 -0.0003 -1.0000
vn 0.0000 0.0002 1.0000
vn 0.0000 -0.0002 -1.0000
vn 0.0000 0.0003 1.0000
vn 1.0000 0.0014 0.0015
vn 0.0000 -0.0002 1.0000
vn 0.0000 0.0003 -1.0000
vn -1.0000 -0.0051 -0.0060
vn -0.0018 -0.0000 -1.0000
vn 1.0000 0.0000 0.0048
vn -0.9999 -0.0127 -0.0060
vn -0.9997 -0.0167 -0.0179
vn -0.9996 -0.0234 -0.0179
vn -0.9998 -0.0177 -0.0060
vn -0.0018 0.0002 -1.0000
vn -0.0020 0.0003 -1.0000
vn -0.0015 0.0014 -1.0000
usemtl None
s off
f 43/1/1 44/2/1 4/3/1 3/4/1
f 3/4/2 4/3/2 6/5/2 5/6/2
f 5/6/3 6/5/3 8/7/3 7/8/3
f 43/1/4 3/4/4 5/6/4 46/9/4
f 46/9/4 5/6/4 10/10/4 45/11/4
f 5/6/4 7/8/4 11/12/4 10/10/4
f 41/13/4 40/14/4 14/15/4 13/16/4
f 58/17/4 41/13/4 13/16/4 47/18/4
f 44/2/5 2/19/5 16/20/5 49/21/5
f 49/21/5 16/20/5 19/22/5 48/23/5
f 8/7/5 6/5/5 17/24/5 18/25/5
f 18/25/6 17/24/6 20/26/6 21/27/6
f 48/23/7 19/22/7 22/28/7 50/29/7
f 64/30/5 61/31/5 23/32/5 24/33/5
f 63/34/8 25/35/8 30/36/8 66/37/8
f 76/38/9 74/39/9 13/40/9 14/41/9
f 77/42/10 75/43/10 15/44/10 47/45/10
f 50/29/5 22/28/5 27/46/5 52/47/5
f 21/27/5 20/26/5 28/48/5 26/49/5
f 67/50/11 66/51/11 30/52/11 53/53/11
f 70/54/2 28/48/2 32/55/2 71/56/2
f 51/57/12 23/32/12 29/58/12 53/53/12
f 52/47/7 27/46/7 31/59/7 54/60/7
f 10/10/2 34/61/2 38/62/2 36/63/2
f 10/10/4 11/12/4 33/64/4 34/61/4
f 56/65/13 36/63/13 38/62/13 57/66/13
f 55/67/14 35/68/14 39/69/14 57/66/14
f 45/11/15 10/10/15 36/63/15 56/65/15
f 35/68/8 12/70/8 37/71/8 39/69/8
f 41/13/16 58/17/16 60/72/16 59/73/16
f 34/61/4 33/64/4 40/14/4 41/13/4
f 35/68/4 55/67/4 58/17/4 42/74/4
f 12/70/17 45/11/17 56/65/17 37/71/17
f 37/71/18 56/65/18 57/66/18 39/69/18
f 28/48/19 52/47/19 54/60/19 32/55/19
f 25/75/20 51/57/20 53/53/20 30/52/20
f 65/76/21 67/50/21 53/53/21 29/58/21
f 20/26/5 50/29/5 52/47/5 28/48/5
f 74/39/22 77/42/22 47/45/22 13/40/22
f 17/24/19 48/23/19 50/29/19 20/26/19
f 6/5/5 49/21/5 48/23/5 17/24/5
f 4/3/5 44/2/5 49/21/5 6/5/5
f 42/74/4 58/17/4 47/18/4 15/77/4
f 9/78/4 46/9/4 45/11/4 12/70/4
f 1/79/4 43/1/4 46/9/4 9/78/4
f 1/79/1 2/19/1 44/2/1 43/1/1
f 57/66/23 38/62/23 59/73/23 60/72/23
f 34/61/2 41/13/2 59/73/2 38/62/2
f 58/17/8 55/67/8 57/66/8 60/72/8
f 80/80/8 78/81/8 62/82/8 35/68/8
f 75/83/8 79/84/8 42/74/8 15/77/8
f 71/56/24 73/85/24 67/50/24 65/76/24
f 23/32/2 61/31/2 65/76/2 29/58/2
f 73/85/25 72/86/25 66/51/25 67/50/25
f 69/87/8 63/34/8 66/37/8 72/88/8
f 68/89/5 70/54/5 61/31/5 64/30/5
f 26/49/5 28/48/5 70/54/5 68/89/5
f 27/90/8 69/87/8 72/88/8 31/91/8
f 54/60/26 31/59/26 72/86/26 73/85/26
f 32/55/27 54/60/27 73/85/27 71/56/27
f 79/84/8 80/80/8 35/68/8 42/74/8
f 61/31/2 70/54/2 71/56/2 65/76/2
f 63/34/8 69/87/8 80/80/8 79/84/8
f 25/35/8 63/34/8 79/84/8 75/83/8
f 69/87/8 27/90/8 78/81/8 80/80/8
f 23/32/28 51/57/28 77/42/28 74/39/28
f 51/57/29 25/75/29 75/43/29 77/42/29
f 24/33/30 23/32/30 74/39/30 76/38/30
f 78/81/8 27/90/8 22/92/8 19/93/8
f 12/70/8 19/93/8 16/94/8 9/78/8
f 9/78/8 16/94/8 2/95/8 1/79/8
f 62/82/8 78/81/8 19/93/8 12/70/8
o Cube
v -1.294278 0.142590 3.063353
v -1.294278 1.213856 3.063353
v -1.294279 0.142590 2.033139
v -1.294279 1.213856 2.033139
v 0.808628 0.142590 3.063352
v -1.191547 0.702827 2.033139
v 0.808627 0.142590 2.033138
v -1.191546 0.702827 3.063353
v -1.191547 0.142590 2.033139
v -1.191547 1.213856 2.033139
v -1.191546 0.142590 3.063353
v -1.191546 1.213856 3.063353
v -1.294278 0.702827 3.063353
v -1.294279 0.702827 2.033139
v 0.808627 0.702827 2.033138
v 0.808628 0.702827 3.063352
vt 0.500000 0.000000
vt 0.625000 0.000000
vt 0.625000 0.250000
vt 0.500000 0.250000
vt 0.500000 0.000000
vt 0.500000 0.250000
vt 0.500000 0.250000
vt 0.500000 0.000000
vt 0.500000 0.984760
vt 0.625000 0.984760
vt 0.625000 1.000000
vt 0.500000 1.000000
vt 0.140240 0.500000
vt 0.375000 0.500000
vt 0.375000 0.750000
vt 0.140240 0.750000
vt 0.859760 0.500000
vt 0.875000 0.500000
vt 0.875000 0.750000
vt 0.859760 0.750000
vt 0.125000 0.500000
vt 0.125000 0.750000
vt 0.500000 0.000000
vt 0.500000 0.250000
vt 0.625000 0.265240
vt 0.500000 0.265240
vt 0.375000 0.250000
vt 0.375000 0.265240
vt 0.500000 0.750000
vt 0.375000 0.984760
vt 0.375000 1.000000
vt 0.500000 0.500000
vt 0.375000 0.000000
vn -1.0000 0.0000 0.0000
vn -0.0000 1.0000 0.0000
vn 1.0000 0.0000 -0.0000
vn 0.0000 0.0000 1.0000
vn 0.0000 -1.0000 -0.0000
vn 0.0000 0.0000 -1.0000
usemtl None
s off
f 93/96/31 82/97/31 84/98/31 94/99/31
f 94/99/32 93/96/32 88/100/32 86/101/32
f 88/100/33 86/101/33 90/102/33 92/103/33
f 88/104/34 92/105/34 82/106/34 93/107/34
f 89/108/35 87/109/35 85/110/35 91/111/35
f 90/112/32 84/113/32 82/114/32 92/115/32
f 83/116/35 89/108/35 91/111/35 81/117/35
f 86/101/32 88/100/32 96/118/32 95/119/32
f 94/99/36 84/98/36 90/120/36 86/121/36
f 83/122/36 94/99/36 86/121/36 89/123/36
f 85/110/34 96/124/34 88/104/34 91/125/34
f 91/125/34 88/104/34 93/107/34 81/126/34
f 87/109/33 95/127/33 96/124/33 85/110/33
f 89/123/36 86/121/36 95/127/36 87/109/36
f 81/128/31 93/96/31 94/99/31 83/122/31
